<?xml version="1.0" encoding="UTF-8" standalone="no"?>
<!DOCTYPE svg PUBLIC "-//W3C//DTD SVG 1.1//EN"
 "http://www.w3.org/Graphics/SVG/1.1/DTD/svg11.dtd">
<!-- Generated by graphviz version 14.1.5 (20260411.2331)
 -->
<!-- Title: HelpSphere · Apex Group · Hybrid Microservices on Azure Pages: 1 -->
<svg width="1452pt" height="2236pt"
 viewBox="0.00 0.00 1452.00 2236.00" xmlns="http://www.w3.org/2000/svg" xmlns:xlink="http://www.w3.org/1999/xlink">
<g id="graph0" class="graph" transform="scale(1 1) rotate(0) translate(72 2164.35)">
<title>HelpSphere · Apex Group · Hybrid Microservices on Azure</title>
<polygon fill="white" stroke="none" points="-72,72 -72,-2164.35 1380.37,-2164.35 1380.37,72 -72,72"/>
<text xml:space="preserve" text-anchor="middle" x="654.18" y="-2063.65" font-family="Segoe UI Semibold" font-size="26.00" fill="#252423">HelpSphere · Apex Group · Hybrid Microservices on Azure</text>
<g id="clust1" class="cluster">
<title>cluster_Edge · Internet</title>
<path fill="#f0f6ff" stroke="#0078d4" stroke-width="2" d="M61.32,-1748.7C61.32,-1748.7 177.32,-1748.7 177.32,-1748.7 183.32,-1748.7 189.32,-1754.7 189.32,-1760.7 189.32,-1760.7 189.32,-2029.1 189.32,-2029.1 189.32,-2035.1 183.32,-2041.1 177.32,-2041.1 177.32,-2041.1 61.32,-2041.1 61.32,-2041.1 55.32,-2041.1 49.32,-2035.1 49.32,-2029.1 49.32,-2029.1 49.32,-1760.7 49.32,-1760.7 49.32,-1754.7 55.32,-1748.7 61.32,-1748.7"/>
<text xml:space="preserve" text-anchor="middle" x="107.19" y="-2022.85" font-family="Segoe UI Semibold" font-size="15.00" fill="#252423">Edge · Internet</text>
</g>
<g id="clust2" class="cluster">
<title>cluster_Apresentação</title>
<path fill="#e6f2fb" stroke="#0078d4" stroke-width="2" d="M61.32,-1415.8C61.32,-1415.8 177.32,-1415.8 177.32,-1415.8 183.32,-1415.8 189.32,-1421.8 189.32,-1427.8 189.32,-1427.8 189.32,-1696.2 189.32,-1696.2 189.32,-1702.2 183.32,-1708.2 177.32,-1708.2 177.32,-1708.2 61.32,-1708.2 61.32,-1708.2 55.32,-1708.2 49.32,-1702.2 49.32,-1696.2 49.32,-1696.2 49.32,-1427.8 49.32,-1427.8 49.32,-1421.8 55.32,-1415.8 61.32,-1415.8"/>
<text xml:space="preserve" text-anchor="middle" x="103.44" y="-1689.95" font-family="Segoe UI Semibold" font-size="15.00" fill="#252423">Apresentação</text>
</g>
<g id="clust3" class="cluster">
<title>cluster_Container Apps Environment · westus3</title>
<path fill="#eaf6ea" stroke="#107c10" stroke-width="2" d="M37.32,-690.3C37.32,-690.3 291.32,-690.3 291.32,-690.3 297.32,-690.3 303.32,-696.3 303.32,-702.3 303.32,-702.3 303.32,-1363.3 303.32,-1363.3 303.32,-1369.3 297.32,-1375.3 291.32,-1375.3 291.32,-1375.3 37.32,-1375.3 37.32,-1375.3 31.32,-1375.3 25.32,-1369.3 25.32,-1363.3 25.32,-1363.3 25.32,-702.3 25.32,-702.3 25.32,-696.3 31.32,-690.3 37.32,-690.3"/>
<text xml:space="preserve" text-anchor="middle" x="164.19" y="-1357.05" font-family="Segoe UI Semibold" font-size="15.00" fill="#252423">Container Apps Environment · westus3</text>
</g>
<g id="clust4" class="cluster">
<title>cluster_Identity · least privilege REAL</title>
<path fill="#fff7db" stroke="#f2b600" stroke-width="2" d="M42.32,-357.4C42.32,-357.4 309.32,-357.4 309.32,-357.4 315.32,-357.4 321.32,-363.4 321.32,-369.4 321.32,-369.4 321.32,-637.8 321.32,-637.8 321.32,-643.8 315.32,-649.8 309.32,-649.8 309.32,-649.8 42.32,-649.8 42.32,-649.8 36.32,-649.8 30.32,-643.8 30.32,-637.8 30.32,-637.8 30.32,-369.4 30.32,-369.4 30.32,-363.4 36.32,-357.4 42.32,-357.4"/>
<text xml:space="preserve" text-anchor="middle" x="136.19" y="-631.55" font-family="Segoe UI Semibold" font-size="15.00" fill="#252423">Identity · least privilege REAL</text>
</g>
<g id="clust5" class="cluster">
<title>cluster_Persistence</title>
<path fill="#fdeae7" stroke="#d83b01" stroke-width="2" d="M294.32,-8C294.32,-8 561.32,-8 561.32,-8 567.32,-8 573.32,-14 573.32,-20 573.32,-20 573.32,-288.4 573.32,-288.4 573.32,-294.4 567.32,-300.4 561.32,-300.4 561.32,-300.4 294.32,-300.4 294.32,-300.4 288.32,-300.4 282.32,-294.4 282.32,-288.4 282.32,-288.4 282.32,-20 282.32,-20 282.32,-14 288.32,-8 294.32,-8"/>
<text xml:space="preserve" text-anchor="middle" x="328.94" y="-282.15" font-family="Segoe UI Semibold" font-size="15.00" fill="#252423">Persistence</text>
</g>
<g id="clust6" class="cluster">
<title>cluster_AI Platform · consumido por backend Python</title>
<path fill="#f5ebf8" stroke="#5c2d91" stroke-width="2" d="M810.32,-704.7C810.32,-704.7 1228.32,-704.7 1228.32,-704.7 1234.32,-704.7 1240.32,-710.7 1240.32,-716.7 1240.32,-716.7 1240.32,-985.1 1240.32,-985.1 1240.32,-991.1 1234.32,-997.1 1228.32,-997.1 1228.32,-997.1 810.32,-997.1 810.32,-997.1 804.32,-997.1 798.32,-991.1 798.32,-985.1 798.32,-985.1 798.32,-716.7 798.32,-716.7 798.32,-710.7 804.32,-704.7 810.32,-704.7"/>
<text xml:space="preserve" text-anchor="middle" x="958.19" y="-978.85" font-family="Segoe UI Semibold" font-size="15.00" fill="#252423">AI Platform · consumido por backend Python</text>
</g>
<g id="clust7" class="cluster">
<title>cluster_Observability &amp; DevOps</title>
<path fill="#fff1db" stroke="#ff8c00" stroke-width="2" d="M349.32,-371.8C349.32,-371.8 616.32,-371.8 616.32,-371.8 622.32,-371.8 628.32,-377.8 628.32,-383.8 628.32,-383.8 628.32,-985.1 628.32,-985.1 628.32,-991.1 622.32,-997.1 616.32,-997.1 616.32,-997.1 349.32,-997.1 349.32,-997.1 343.32,-997.1 337.32,-991.1 337.32,-985.1 337.32,-985.1 337.32,-383.8 337.32,-383.8 337.32,-377.8 343.32,-371.8 349.32,-371.8"/>
<text xml:space="preserve" text-anchor="middle" x="425.57" y="-978.85" font-family="Segoe UI Semibold" font-size="15.00" fill="#252423">Observability &amp; DevOps</text>
</g>
<!-- 286c9189c0844c02abe2282b9af1ff37 -->
<g id="node1" class="node">
<title>286c9189c0844c02abe2282b9af1ff37</title>
<image xlink:href="C:\Users\GuilhermePruxCampos\AppData\Roaming\Python\Python314\site-packages\resources/azure/general\usericon.png" width="100.8px" height="100.8px" preserveAspectRatio="xMinYMin meet" x="68.9165" y="-1916.3"/>
<text xml:space="preserve" text-anchor="middle" x="119.32" y="-1810.35" font-family="Segoe UI" font-size="13.00" fill="#252423">Atendentes Apex</text>
<text xml:space="preserve" text-anchor="middle" x="119.32" y="-1792.35" font-family="Segoe UI" font-size="13.00" fill="#252423">5 marcas multi&#45;tenant</text>
<text xml:space="preserve" text-anchor="middle" x="119.32" y="-1774.35" font-family="Segoe UI" font-size="13.00" fill="#252423">~3.500 operadores</text>
</g>
<!-- 0a5738264b794ca2956729b4596df636 -->
<g id="node2" class="node">
<title>0a5738264b794ca2956729b4596df636</title>
<image xlink:href="C:\Users\GuilhermePruxCampos\AppData\Roaming\Python\Python314\site-packages\resources/azure/web\app-services.png" width="100.8px" height="100.8px" preserveAspectRatio="xMinYMin meet" x="68.9165" y="-1583.4"/>
<text xml:space="preserve" text-anchor="middle" x="119.32" y="-1477.45" font-family="Segoe UI" font-size="13.00" fill="#252423">SPA React + Vite + TS</text>
<text xml:space="preserve" text-anchor="middle" x="119.32" y="-1459.45" font-family="Segoe UI" font-size="13.00" fill="#252423">Fluent UI v9</text>
<text xml:space="preserve" text-anchor="middle" x="119.32" y="-1441.45" font-family="Segoe UI" font-size="13.00" fill="#252423">App Service B1 (Always&#45;On)</text>
</g>
<!-- 286c9189c0844c02abe2282b9af1ff37&#45;&gt;0a5738264b794ca2956729b4596df636 -->
<g id="edge1" class="edge">
<title>286c9189c0844c02abe2282b9af1ff37&#45;&gt;0a5738264b794ca2956729b4596df636</title>
<path fill="none" stroke="#0078d4" stroke-width="2" d="M119.32,-1768.75C119.32,-1729.4 119.32,-1683.68 119.32,-1643.09"/>
<polygon fill="#0078d4" stroke="#0078d4" stroke-width="2" points="122.82,-1643.14 119.32,-1633.14 115.82,-1643.14 122.82,-1643.14"/>
<text xml:space="preserve" text-anchor="middle" x="183.07" y="-1720.35" font-family="Sans-Serif" font-size="13.00" fill="#2d3436">HTTPS · Entra ID JWT</text>
</g>
<!-- 9e44f40f1e2e49caa54798a0ff696715 -->
<g id="node3" class="node">
<title>9e44f40f1e2e49caa54798a0ff696715</title>
<image xlink:href="C:\Users\GuilhermePruxCampos\AppData\Roaming\Python\Python314\site-packages\resources/azure/compute\container-apps.png" width="100.8px" height="100.8px" preserveAspectRatio="xMinYMin meet" x="182.917" y="-1236.1"/>
<text xml:space="preserve" text-anchor="middle" x="233.32" y="-1133.75" font-family="Segoe UI" font-size="13.00" fill="#252423">Backend Python</text>
<text xml:space="preserve" text-anchor="middle" x="233.32" y="-1115.75" font-family="Segoe UI" font-size="13.00" fill="#252423">Quart · gunicorn 8w</text>
<text xml:space="preserve" text-anchor="middle" x="233.32" y="-1097.75" font-family="Segoe UI" font-size="13.00" fill="#252423">/chat /ask /upload</text>
<text xml:space="preserve" text-anchor="middle" x="233.32" y="-1079.75" font-family="Segoe UI" font-size="13.00" fill="#252423">/api/tickets/* → 410 Gone</text>
</g>
<!-- 0a5738264b794ca2956729b4596df636&#45;&gt;9e44f40f1e2e49caa54798a0ff696715 -->
<g id="edge2" class="edge">
<title>0a5738264b794ca2956729b4596df636&#45;&gt;9e44f40f1e2e49caa54798a0ff696715</title>
<path fill="none" stroke="#0078d4" d="M151.07,-1435.81C164.16,-1396.16 179.48,-1349.77 193.32,-1307.84"/>
<polygon fill="#0078d4" stroke="#0078d4" points="196.62,-1309.02 196.43,-1298.43 189.97,-1306.83 196.62,-1309.02"/>
<text xml:space="preserve" text-anchor="middle" x="238.86" y="-1387.45" font-family="Sans-Serif" font-size="13.00" fill="#2d3436">VITE_API_BACKEND_URL</text>
</g>
<!-- a300e6ec3f42460498ed88b6a714b592 -->
<g id="node4" class="node">
<title>a300e6ec3f42460498ed88b6a714b592</title>
<image xlink:href="C:\Users\GuilhermePruxCampos\AppData\Roaming\Python\Python314\site-packages\resources/azure/compute\container-apps.png" width="100.8px" height="100.8px" preserveAspectRatio="xMinYMin meet" x="47.9165" y="-872.3"/>
<text xml:space="preserve" text-anchor="middle" x="98.32" y="-769.95" font-family="Segoe UI" font-size="13.00" fill="#252423">Tickets&#45;service .NET 10</text>
<text xml:space="preserve" text-anchor="middle" x="98.32" y="-751.95" font-family="Segoe UI" font-size="13.00" fill="#252423">Minimal API · Dapper</text>
<text xml:space="preserve" text-anchor="middle" x="98.32" y="-733.95" font-family="Segoe UI" font-size="13.00" fill="#252423">5 endpoints REST</text>
<text xml:space="preserve" text-anchor="middle" x="98.32" y="-715.95" font-family="Segoe UI" font-size="13.00" fill="#252423">JWT auth obrigatório</text>
</g>
<!-- 0a5738264b794ca2956729b4596df636&#45;&gt;a300e6ec3f42460498ed88b6a714b592 -->
<g id="edge3" class="edge">
<title>0a5738264b794ca2956729b4596df636&#45;&gt;a300e6ec3f42460498ed88b6a714b592</title>
<path fill="none" stroke="#0078d4" d="M69.09,-1471.64C49.32,-1444.06 28.95,-1409.88 18.82,-1375.3 -23.63,-1230.51 14.99,-1057.46 51.75,-944.12"/>
<polygon fill="#0078d4" stroke="#0078d4" points="55.02,-945.37 54.82,-934.77 48.37,-943.18 55.02,-945.37"/>
<text xml:space="preserve" text-anchor="middle" x="88.57" y="-1181.6" font-family="Sans-Serif" font-size="13.00" fill="#2d3436">VITE_API_TICKETS_URL</text>
</g>
<!-- 9e44f40f1e2e49caa54798a0ff696715&#45;&gt;a300e6ec3f42460498ed88b6a714b592 -->
<g id="edge4" class="edge">
<title>9e44f40f1e2e49caa54798a0ff696715&#45;&gt;a300e6ec3f42460498ed88b6a714b592</title>
<path fill="none" stroke="#d83b01" stroke-dasharray="5,2" d="M183.11,-1114.32C171.5,-1100.23 158.63,-1086.09 145.32,-1074.1 123.19,-1054.18 103.14,-1064.21 88.82,-1038.1 73.41,-1010.02 69.38,-976.64 70.83,-944.65"/>
<polygon fill="#d83b01" stroke="#d83b01" points="74.31,-945.12 71.47,-934.91 67.32,-944.66 74.31,-945.12"/>
<text xml:space="preserve" text-anchor="middle" x="151.07" y="-1025.75" font-family="Sans-Serif" font-size="13.00" fill="#d83b01">410 Gone + Link</text>
<text xml:space="preserve" text-anchor="middle" x="151.07" y="-1009.25" font-family="Sans-Serif" font-size="13.00" fill="#d83b01">rel=successor&#45;version</text>
</g>
<!-- fde0d30a9589441eaa7266c2bcedecac -->
<g id="node5" class="node">
<title>fde0d30a9589441eaa7266c2bcedecac</title>
<image xlink:href="C:\Users\GuilhermePruxCampos\AppData\Roaming\Python\Python314\site-packages\resources/azure/identity\managed-identities.png" width="100.8px" height="100.8px" preserveAspectRatio="xMinYMin meet" x="200.917" y="-525"/>
<text xml:space="preserve" text-anchor="middle" x="251.32" y="-419.05" font-family="Segoe UI" font-size="13.00" fill="#252423">UMI backend</text>
<text xml:space="preserve" text-anchor="middle" x="251.32" y="-401.05" font-family="Segoe UI" font-size="13.00" fill="#252423">SELECT em tbl_tenants</text>
<text xml:space="preserve" text-anchor="middle" x="251.32" y="-383.05" font-family="Segoe UI" font-size="13.00" fill="#252423">APENAS</text>
</g>
<!-- 9e44f40f1e2e49caa54798a0ff696715&#45;&gt;fde0d30a9589441eaa7266c2bcedecac -->
<g id="edge5" class="edge">
<title>9e44f40f1e2e49caa54798a0ff696715&#45;&gt;fde0d30a9589441eaa7266c2bcedecac</title>
<path fill="none" stroke="#605e5c" stroke-dasharray="1,5" d="M236.12,-1074.29C239.52,-940.21 245.23,-715.56 248.59,-582.89"/>
<polygon fill="#605e5c" stroke="#605e5c" points="252.09,-583.13 248.84,-573.04 245.09,-582.95 252.09,-583.13"/>
<text xml:space="preserve" text-anchor="middle" x="252.96" y="-817.8" font-family="Sans-Serif" font-size="13.00" fill="#2d3436">MI</text>
</g>
<!-- 433abffb57684e87be54c0325688d1a9 -->
<g id="node8" class="node">
<title>433abffb57684e87be54c0325688d1a9</title>
<image xlink:href="C:\Users\GuilhermePruxCampos\AppData\Roaming\Python\Python314\site-packages\resources/azure/storage\blob-storage.png" width="100.8px" height="100.8px" preserveAspectRatio="xMinYMin meet" x="452.917" y="-175.6"/>
<text xml:space="preserve" text-anchor="middle" x="503.32" y="-69.65" font-family="Segoe UI" font-size="13.00" fill="#252423">Blob Storage</text>
<text xml:space="preserve" text-anchor="middle" x="503.32" y="-51.65" font-family="Segoe UI" font-size="13.00" fill="#252423">62 PDFs Apex KB</text>
<text xml:space="preserve" text-anchor="middle" x="503.32" y="-33.65" font-family="Segoe UI" font-size="13.00" fill="#252423">+ mocks Vision OCR</text>
</g>
<!-- 9e44f40f1e2e49caa54798a0ff696715&#45;&gt;433abffb57684e87be54c0325688d1a9 -->
<g id="edge12" class="edge">
<title>9e44f40f1e2e49caa54798a0ff696715&#45;&gt;433abffb57684e87be54c0325688d1a9</title>
<path fill="none" stroke="#5c2d91" stroke-dasharray="5,2" d="M283.61,-1183.95C472.4,-1179.93 1134.07,-1154.63 1252.32,-997.1 1513.94,-648.56 783.11,-260.45 563.57,-154.31"/>
<polygon fill="#5c2d91" stroke="#5c2d91" points="565.4,-151.31 554.87,-150.13 562.36,-157.61 565.4,-151.31"/>
<text xml:space="preserve" text-anchor="middle" x="1263.99" y="-661.95" font-family="Sans-Serif" font-size="13.00" fill="#2d3436">docs</text>
</g>
<!-- e311433d3cd94df8ae33a9494c00eb8b -->
<g id="node9" class="node">
<title>e311433d3cd94df8ae33a9494c00eb8b</title>
<image xlink:href="C:\Users\GuilhermePruxCampos\AppData\Roaming\Python\Python314\site-packages\resources/azure/ml\cognitive-services.png" width="100.8px" height="100.8px" preserveAspectRatio="xMinYMin meet" x="817.917" y="-872.3"/>
<text xml:space="preserve" text-anchor="middle" x="868.32" y="-766.35" font-family="Segoe UI" font-size="13.00" fill="#252423">Azure OpenAI</text>
<text xml:space="preserve" text-anchor="middle" x="868.32" y="-748.35" font-family="Segoe UI" font-size="13.00" fill="#252423">gpt&#45;4.1&#45;mini</text>
<text xml:space="preserve" text-anchor="middle" x="868.32" y="-730.35" font-family="Segoe UI" font-size="13.00" fill="#252423">+ emb&#45;3&#45;large</text>
</g>
<!-- 9e44f40f1e2e49caa54798a0ff696715&#45;&gt;e311433d3cd94df8ae33a9494c00eb8b -->
<g id="edge9" class="edge">
<title>9e44f40f1e2e49caa54798a0ff696715&#45;&gt;e311433d3cd94df8ae33a9494c00eb8b</title>
<path fill="none" stroke="#5c2d91" stroke-dasharray="5,2" d="M283.66,-1180.23C380.51,-1169.61 596.43,-1135.96 746.32,-1038.1 785.44,-1012.56 813.34,-969.87 832.49,-929.21"/>
<polygon fill="#5c2d91" stroke="#5c2d91" points="835.59,-930.86 836.55,-920.31 829.22,-927.96 835.59,-930.86"/>
<text xml:space="preserve" text-anchor="middle" x="793.79" y="-1017.5" font-family="Sans-Serif" font-size="13.00" fill="#2d3436">RAG</text>
</g>
<!-- 0e9df7c7ef034b258e865f5db9ba083c -->
<g id="node10" class="node">
<title>0e9df7c7ef034b258e865f5db9ba083c</title>
<image xlink:href="C:\Users\GuilhermePruxCampos\AppData\Roaming\Python\Python314\site-packages\resources/azure/web\search.png" width="100.8px" height="100.8px" preserveAspectRatio="xMinYMin meet" x="968.917" y="-872.3"/>
<text xml:space="preserve" text-anchor="middle" x="1019.32" y="-762.75" font-family="Segoe UI" font-size="13.00" fill="#252423">AI Search</text>
<text xml:space="preserve" text-anchor="middle" x="1019.32" y="-744.75" font-family="Segoe UI" font-size="13.00" fill="#252423">semantic ranker</text>
</g>
<!-- 9e44f40f1e2e49caa54798a0ff696715&#45;&gt;0e9df7c7ef034b258e865f5db9ba083c -->
<g id="edge10" class="edge">
<title>9e44f40f1e2e49caa54798a0ff696715&#45;&gt;0e9df7c7ef034b258e865f5db9ba083c</title>
<path fill="none" stroke="#5c2d91" stroke-dasharray="5,2" d="M283.48,-1177.55C428.48,-1155.96 844.12,-1087.35 943.32,-997.1 967.33,-975.25 984.11,-944.46 995.68,-914.83"/>
<polygon fill="#5c2d91" stroke="#5c2d91" points="998.82,-916.43 999.02,-905.84 992.26,-913.99 998.82,-916.43"/>
<text xml:space="preserve" text-anchor="middle" x="942.4" y="-1017.5" font-family="Sans-Serif" font-size="13.00" fill="#2d3436">index</text>
</g>
<!-- acf4888438fe4d3898859dff7f8dafe4 -->
<g id="node11" class="node">
<title>acf4888438fe4d3898859dff7f8dafe4</title>
<image xlink:href="C:\Users\GuilhermePruxCampos\AppData\Roaming\Python\Python314\site-packages\resources/azure/ml\cognitive-services.png" width="100.8px" height="100.8px" preserveAspectRatio="xMinYMin meet" x="1119.92" y="-872.3"/>
<text xml:space="preserve" text-anchor="middle" x="1170.32" y="-762.75" font-family="Segoe UI" font-size="13.00" fill="#252423">Doc Intelligence</text>
<text xml:space="preserve" text-anchor="middle" x="1170.32" y="-744.75" font-family="Segoe UI" font-size="13.00" fill="#252423">+ AI Vision (OCR)</text>
</g>
<!-- 9e44f40f1e2e49caa54798a0ff696715&#45;&gt;acf4888438fe4d3898859dff7f8dafe4 -->
<g id="edge11" class="edge">
<title>9e44f40f1e2e49caa54798a0ff696715&#45;&gt;acf4888438fe4d3898859dff7f8dafe4</title>
<path fill="none" stroke="#5c2d91" stroke-dasharray="5,2" d="M283.43,-1180.31C448.71,-1164.85 972.87,-1107.85 1094.32,-997.1 1118.31,-975.22 1135.08,-944.43 1146.65,-914.8"/>
<polygon fill="#5c2d91" stroke="#5c2d91" points="1149.79,-916.4 1149.99,-905.81 1143.23,-913.96 1149.79,-916.4"/>
<text xml:space="preserve" text-anchor="middle" x="1086.67" y="-1017.5" font-family="Sans-Serif" font-size="13.00" fill="#2d3436">OCR</text>
</g>
<!-- 2dc105f33d5e458cb4e46a0014333b3b -->
<g id="node12" class="node">
<title>2dc105f33d5e458cb4e46a0014333b3b</title>
<image xlink:href="C:\Users\GuilhermePruxCampos\AppData\Roaming\Python\Python314\site-packages\resources/azure/ml\cognitive-services.png" width="100.8px" height="100.8px" preserveAspectRatio="xMinYMin meet" x="356.917" y="-872.3"/>
<text xml:space="preserve" text-anchor="middle" x="407.32" y="-766.35" font-family="Segoe UI" font-size="13.00" fill="#252423">Application Insights</text>
<text xml:space="preserve" text-anchor="middle" x="407.32" y="-748.35" font-family="Segoe UI" font-size="13.00" fill="#252423">workspace&#45;based</text>
<text xml:space="preserve" text-anchor="middle" x="407.32" y="-730.35" font-family="Segoe UI" font-size="13.00" fill="#252423">OpenTelemetry</text>
</g>
<!-- 9e44f40f1e2e49caa54798a0ff696715&#45;&gt;2dc105f33d5e458cb4e46a0014333b3b -->
<g id="edge13" class="edge">
<title>9e44f40f1e2e49caa54798a0ff696715&#45;&gt;2dc105f33d5e458cb4e46a0014333b3b</title>
<path fill="none" stroke="#605e5c" stroke-dasharray="1,5" d="M283.6,-1102.41C295.53,-1081.71 307.83,-1059.33 318.32,-1038.1 335.51,-1003.29 352.33,-964.32 366.63,-929.21"/>
<polygon fill="#605e5c" stroke="#605e5c" points="369.71,-930.91 370.22,-920.33 363.23,-928.29 369.71,-930.91"/>
<text xml:space="preserve" text-anchor="middle" x="344.32" y="-1017.5" font-family="Sans-Serif" font-size="13.00" fill="#2d3436">OTel</text>
</g>
<!-- 5efd7bbc30444b9688ecc0bd4c2e40c0 -->
<g id="node6" class="node">
<title>5efd7bbc30444b9688ecc0bd4c2e40c0</title>
<image xlink:href="C:\Users\GuilhermePruxCampos\AppData\Roaming\Python\Python314\site-packages\resources/azure/identity\managed-identities.png" width="100.8px" height="100.8px" preserveAspectRatio="xMinYMin meet" x="49.9165" y="-525"/>
<text xml:space="preserve" text-anchor="middle" x="100.32" y="-419.05" font-family="Segoe UI" font-size="13.00" fill="#252423">UMI tickets&#45;service</text>
<text xml:space="preserve" text-anchor="middle" x="100.32" y="-401.05" font-family="Segoe UI" font-size="13.00" fill="#252423">9 grants object&#45;level</text>
<text xml:space="preserve" text-anchor="middle" x="100.32" y="-383.05" font-family="Segoe UI" font-size="13.00" fill="#252423">scoped</text>
</g>
<!-- a300e6ec3f42460498ed88b6a714b592&#45;&gt;5efd7bbc30444b9688ecc0bd4c2e40c0 -->
<g id="edge6" class="edge">
<title>a300e6ec3f42460498ed88b6a714b592&#45;&gt;5efd7bbc30444b9688ecc0bd4c2e40c0</title>
<path fill="none" stroke="#605e5c" stroke-dasharray="1,5" d="M88.93,-710.49C88.17,-698.28 87.52,-686.03 87.07,-674.3 85.93,-644.58 87.05,-612.41 89.04,-582.78"/>
<polygon fill="#605e5c" stroke="#605e5c" points="92.51,-583.29 89.74,-573.06 85.53,-582.79 92.51,-583.29"/>
<text xml:space="preserve" text-anchor="middle" x="94.19" y="-661.95" font-family="Sans-Serif" font-size="13.00" fill="#2d3436">MI</text>
</g>
<!-- a300e6ec3f42460498ed88b6a714b592&#45;&gt;2dc105f33d5e458cb4e46a0014333b3b -->
<g id="edge14" class="edge">
<title>a300e6ec3f42460498ed88b6a714b592&#45;&gt;2dc105f33d5e458cb4e46a0014333b3b</title>
<path fill="none" stroke="#605e5c" stroke-dasharray="1,5" d="M137.21,-933.45C150.25,-955.69 167.28,-976.2 189.32,-989.3 237.45,-1017.92 267.12,-1017.81 315.32,-989.3 338.9,-975.35 356.84,-952.97 370.33,-929.05"/>
<polygon fill="#605e5c" stroke="#605e5c" points="373.31,-930.9 374.94,-920.43 367.14,-927.6 373.31,-930.9"/>
<text xml:space="preserve" text-anchor="middle" x="294.32" y="-1017.5" font-family="Sans-Serif" font-size="13.00" fill="#2d3436">OTel</text>
</g>
<!-- 5bc5f54ffb4643c096902ca4c6c2671a -->
<g id="node7" class="node">
<title>5bc5f54ffb4643c096902ca4c6c2671a</title>
<image xlink:href="C:\Users\GuilhermePruxCampos\AppData\Roaming\Python\Python314\site-packages\resources/azure/database\sql-databases.png" width="100.8px" height="100.8px" preserveAspectRatio="xMinYMin meet" x="301.917" y="-175.6"/>
<text xml:space="preserve" text-anchor="middle" x="352.32" y="-69.65" font-family="Segoe UI" font-size="13.00" fill="#252423">Azure SQL Serverless</text>
<text xml:space="preserve" text-anchor="middle" x="352.32" y="-51.65" font-family="Segoe UI" font-size="13.00" fill="#252423">GP_S_Gen5_2 · autoPause OFF</text>
<text xml:space="preserve" text-anchor="middle" x="352.32" y="-33.65" font-family="Segoe UI" font-size="13.00" fill="#252423">5 tenants · 50 tickets · 70 comments</text>
</g>
<!-- fde0d30a9589441eaa7266c2bcedecac&#45;&gt;5bc5f54ffb4643c096902ca4c6c2671a -->
<g id="edge7" class="edge">
<title>fde0d30a9589441eaa7266c2bcedecac&#45;&gt;5bc5f54ffb4643c096902ca4c6c2671a</title>
<path fill="none" stroke="#107c10" stroke-width="2" d="M286.67,-377.57C290.77,-365.45 294.76,-353.17 298.32,-341.4 308.72,-307 318.71,-269.1 327.21,-234.81"/>
<polygon fill="#107c10" stroke="#107c10" stroke-width="2" points="330.56,-235.84 329.55,-225.29 323.77,-234.17 330.56,-235.84"/>
<text xml:space="preserve" text-anchor="middle" x="431.27" y="-329.05" font-family="Sans-Serif" font-size="13.00" fill="#107c10">SELECT tbl_tenants</text>
<text xml:space="preserve" text-anchor="middle" x="431.27" y="-312.55" font-family="Sans-Serif" font-size="13.00" fill="#107c10">(token via SQL_COPT_SS_ACCESS_TOKEN)</text>
</g>
<!-- 5efd7bbc30444b9688ecc0bd4c2e40c0&#45;&gt;5bc5f54ffb4643c096902ca4c6c2671a -->
<g id="edge8" class="edge">
<title>5efd7bbc30444b9688ecc0bd4c2e40c0&#45;&gt;5bc5f54ffb4643c096902ca4c6c2671a</title>
<path fill="none" stroke="#107c10" stroke-width="2" d="M76.65,-377.76C75.31,-354.03 78.06,-329.41 89.07,-308.4 131.18,-228.04 226.61,-176.08 290.25,-148.98"/>
<polygon fill="#107c10" stroke="#107c10" stroke-width="2" points="291.45,-152.27 299.34,-145.21 288.76,-145.81 291.45,-152.27"/>
<text xml:space="preserve" text-anchor="middle" x="187.69" y="-329.05" font-family="Sans-Serif" font-size="13.00" fill="#107c10">SELECT/INSERT/UPDATE/DELETE</text>
<text xml:space="preserve" text-anchor="middle" x="187.69" y="-312.55" font-family="Sans-Serif" font-size="13.00" fill="#107c10">tbl_tickets + tbl_comments</text>
</g>
<!-- 17fef2ee280141a68fb7f8f19c142414 -->
<g id="node13" class="node">
<title>17fef2ee280141a68fb7f8f19c142414</title>
<image xlink:href="C:\Users\GuilhermePruxCampos\AppData\Roaming\Python\Python314\site-packages\resources/azure/compute\container-registries.png" width="100.8px" height="100.8px" preserveAspectRatio="xMinYMin meet" x="507.917" y="-525"/>
<text xml:space="preserve" text-anchor="middle" x="558.32" y="-415.45" font-family="Segoe UI" font-size="13.00" fill="#252423">Azure Container</text>
<text xml:space="preserve" text-anchor="middle" x="558.32" y="-397.45" font-family="Segoe UI" font-size="13.00" fill="#252423">Registry · 2 imagens</text>
</g>
<!-- 17fef2ee280141a68fb7f8f19c142414&#45;&gt;9e44f40f1e2e49caa54798a0ff696715 -->
<g id="edge16" class="edge">
<title>17fef2ee280141a68fb7f8f19c142414&#45;&gt;9e44f40f1e2e49caa54798a0ff696715</title>
<path fill="none" stroke="#605e5c" stroke-dasharray="1,5" d="M601.23,-557.21C652.03,-666.25 719.54,-861.42 633.32,-997.1 558.18,-1115.33 386.67,-1160.35 294.53,-1176.44"/>
<polygon fill="#605e5c" stroke="#605e5c" points="294.21,-1172.94 284.92,-1178.05 295.37,-1179.85 294.21,-1172.94"/>
<text xml:space="preserve" text-anchor="middle" x="704.65" y="-817.8" font-family="Sans-Serif" font-size="13.00" fill="#2d3436">image pull</text>
</g>
<!-- 17fef2ee280141a68fb7f8f19c142414&#45;&gt;a300e6ec3f42460498ed88b6a714b592 -->
<g id="edge17" class="edge">
<title>17fef2ee280141a68fb7f8f19c142414&#45;&gt;a300e6ec3f42460498ed88b6a714b592</title>
<path fill="none" stroke="#605e5c" stroke-dasharray="1,5" d="M508.14,-523.71C464.93,-562.75 399.28,-616.58 333.32,-649.8 273.94,-679.7 243.5,-651.77 189.32,-690.3 176.99,-699.06 165.78,-710.05 155.77,-721.9"/>
<polygon fill="#605e5c" stroke="#605e5c" points="153.2,-719.51 149.64,-729.49 158.65,-723.91 153.2,-719.51"/>
<text xml:space="preserve" text-anchor="middle" x="343.1" y="-661.95" font-family="Sans-Serif" font-size="13.00" fill="#2d3436">image pull</text>
</g>
<!-- 10d22f7ee52c42248b297e2fb80a294c -->
<g id="node14" class="node">
<title>10d22f7ee52c42248b297e2fb80a294c</title>
<image xlink:href="C:\Users\GuilhermePruxCampos\AppData\Roaming\Python\Python314\site-packages\resources/azure/devops\devops.png" width="100.8px" height="100.8px" preserveAspectRatio="xMinYMin meet" x="507.917" y="-872.3"/>
<text xml:space="preserve" text-anchor="middle" x="558.32" y="-762.75" font-family="Segoe UI" font-size="13.00" fill="#252423">GitHub Actions</text>
<text xml:space="preserve" text-anchor="middle" x="558.32" y="-744.75" font-family="Segoe UI" font-size="13.00" fill="#252423">azd CI/CD · OIDC</text>
</g>
<!-- 10d22f7ee52c42248b297e2fb80a294c&#45;&gt;17fef2ee280141a68fb7f8f19c142414 -->
<g id="edge15" class="edge">
<title>10d22f7ee52c42248b297e2fb80a294c&#45;&gt;17fef2ee280141a68fb7f8f19c142414</title>
<path fill="none" stroke="#605e5c" stroke-dasharray="1,5" d="M558.32,-739.51C558.32,-688.33 558.32,-622.14 558.32,-568.86"/>
<polygon fill="#605e5c" stroke="#605e5c" points="561.82,-568.86 558.32,-558.86 554.82,-568.86 561.82,-568.86"/>
<text xml:space="preserve" text-anchor="middle" x="577.82" y="-661.95" font-family="Sans-Serif" font-size="13.00" fill="#2d3436">azd up</text>
</g>
</g>
</svg>
