<?xml version="1.0" encoding="UTF-8" standalone="no"?>
<!DOCTYPE svg PUBLIC "-//W3C//DTD SVG 1.1//EN"
 "http://www.w3.org/Graphics/SVG/1.1/DTD/svg11.dtd">
<!-- Generated by graphviz version 14.1.5 (20260411.2331)
 -->
<!-- Title: HelpSphere · Apex Group · Hybrid Microservices on Azure Pages: 1 -->
<svg width="2115pt" height="1885pt"
 viewBox="0.00 0.00 2115.00 1885.00" xmlns="http://www.w3.org/2000/svg" xmlns:xlink="http://www.w3.org/1999/xlink">
<g id="graph0" class="graph" transform="scale(1 1) rotate(0) translate(57.6 1827.6)">
<title>HelpSphere · Apex Group · Hybrid Microservices on Azure</title>
<polygon fill="white" stroke="none" points="-57.6,57.6 -57.6,-1827.6 2057.55,-1827.6 2057.55,57.6 -57.6,57.6"/>
<text xml:space="preserve" text-anchor="middle" x="999.98" y="-1745.1" font-family="Segoe UI" font-size="22.00" fill="#2d3436">HelpSphere · Apex Group · Hybrid Microservices on Azure</text>
<g id="clust1" class="cluster">
<title>cluster_Container Apps Environment · westus3</title>
<path fill="#edf7ed" stroke="#aeb6be" d="M701.95,-1294C701.95,-1294 1208.9,-1294 1208.9,-1294 1214.9,-1294 1220.9,-1300 1220.9,-1306 1220.9,-1306 1220.9,-1550 1220.9,-1550 1220.9,-1556 1214.9,-1562 1208.9,-1562 1208.9,-1562 701.95,-1562 701.95,-1562 695.95,-1562 689.95,-1556 689.95,-1550 689.95,-1550 689.95,-1306 689.95,-1306 689.95,-1300 695.95,-1294 701.95,-1294"/>
<text xml:space="preserve" text-anchor="middle" x="837.45" y="-1542.8" font-family="Sans-Serif" font-size="16.00" fill="#2d3436">Container Apps Environment · westus3</text>
</g>
<g id="clust2" class="cluster">
<title>cluster_Identity &amp; Governance · least privilege REAL</title>
<path fill="#fff8e1" stroke="#aeb6be" d="M1343.9,-1136C1343.9,-1136 1651.65,-1136 1651.65,-1136 1657.65,-1136 1663.65,-1142 1663.65,-1148 1663.65,-1148 1663.65,-1543 1663.65,-1543 1663.65,-1549 1657.65,-1555 1651.65,-1555 1651.65,-1555 1343.9,-1555 1343.9,-1555 1337.9,-1555 1331.9,-1549 1331.9,-1543 1331.9,-1543 1331.9,-1148 1331.9,-1148 1331.9,-1142 1337.9,-1136 1343.9,-1136"/>
<text xml:space="preserve" text-anchor="middle" x="1497.78" y="-1535.8" font-family="Sans-Serif" font-size="16.00" fill="#2d3436">Identity &amp; Governance · least privilege REAL</text>
</g>
<g id="clust3" class="cluster">
<title>cluster_Persistence</title>
<path fill="#ffebee" stroke="#aeb6be" d="M1887.15,-1219C1887.15,-1219 1979.95,-1219 1979.95,-1219 1985.95,-1219 1991.95,-1225 1991.95,-1231 1991.95,-1231 1991.95,-1712 1991.95,-1712 1991.95,-1718 1985.95,-1724 1979.95,-1724 1979.95,-1724 1887.15,-1724 1887.15,-1724 1881.15,-1724 1875.15,-1718 1875.15,-1712 1875.15,-1712 1875.15,-1231 1875.15,-1231 1875.15,-1225 1881.15,-1219 1887.15,-1219"/>
<text xml:space="preserve" text-anchor="middle" x="1923.28" y="-1704.8" font-family="Sans-Serif" font-size="16.00" fill="#2d3436">Persistence</text>
</g>
<g id="clust4" class="cluster">
<title>cluster_AI Platform</title>
<path fill="#f3e5f5" stroke="#aeb6be" d="M1116.1,-8C1116.1,-8 1208.9,-8 1208.9,-8 1214.9,-8 1220.9,-14 1220.9,-20 1220.9,-20 1220.9,-680 1220.9,-680 1220.9,-686 1214.9,-692 1208.9,-692 1208.9,-692 1116.1,-692 1116.1,-692 1110.1,-692 1104.1,-686 1104.1,-680 1104.1,-680 1104.1,-20 1104.1,-20 1104.1,-14 1110.1,-8 1116.1,-8"/>
<text xml:space="preserve" text-anchor="middle" x="1152.23" y="-672.8" font-family="Sans-Serif" font-size="16.00" fill="#2d3436">AI Platform</text>
</g>
<g id="clust5" class="cluster">
<title>cluster_Observability &amp; DevOps</title>
<path fill="#fff3e0" stroke="#aeb6be" d="M1116.1,-700C1116.1,-700 1543.68,-700 1543.68,-700 1549.68,-700 1555.68,-706 1555.68,-712 1555.68,-712 1555.68,-1107 1555.68,-1107 1555.68,-1113 1549.68,-1119 1543.68,-1119 1543.68,-1119 1116.1,-1119 1116.1,-1119 1110.1,-1119 1104.1,-1113 1104.1,-1107 1104.1,-1107 1104.1,-712 1104.1,-712 1104.1,-706 1110.1,-700 1116.1,-700"/>
<text xml:space="preserve" text-anchor="middle" x="1195.73" y="-1099.8" font-family="Sans-Serif" font-size="16.00" fill="#2d3436">Observability &amp; DevOps</text>
</g>
<!-- c01f38a1690d497f9249dfc09261463d -->
<g id="node1" class="node">
<title>c01f38a1690d497f9249dfc09261463d</title>
<image xlink:href="C:\Users\GuilhermePruxCampos\AppData\Roaming\Python\Python314\site-packages\resources/azure/general\usericon.png" width="100.8px" height="100.8px" preserveAspectRatio="xMinYMin meet" x="8.52651e-14" y="-1577.4"/>
<text xml:space="preserve" text-anchor="middle" x="50.4" y="-1467.85" font-family="Segoe UI" font-size="13.00" fill="#2d3436">Atendentes Apex</text>
<text xml:space="preserve" text-anchor="middle" x="50.4" y="-1449.85" font-family="Segoe UI" font-size="13.00" fill="#2d3436">5 marcas multi&#45;tenant</text>
</g>
<!-- b6db6dc599b14f629b49343600de69dc -->
<g id="node2" class="node">
<title>b6db6dc599b14f629b49343600de69dc</title>
<image xlink:href="C:\Users\GuilhermePruxCampos\AppData\Roaming\Python\Python314\site-packages\resources/azure/web\app-services.png" width="100.8px" height="100.8px" preserveAspectRatio="xMinYMin meet" x="330.3" y="-1577.4"/>
<text xml:space="preserve" text-anchor="middle" x="380.7" y="-1471.45" font-family="Segoe UI" font-size="13.00" fill="#2d3436">SPA React + Vite</text>
<text xml:space="preserve" text-anchor="middle" x="380.7" y="-1453.45" font-family="Segoe UI" font-size="13.00" fill="#2d3436">App Service B1</text>
<text xml:space="preserve" text-anchor="middle" x="380.7" y="-1435.45" font-family="Segoe UI" font-size="13.00" fill="#2d3436">(Always&#45;On)</text>
</g>
<!-- c01f38a1690d497f9249dfc09261463d&#45;&gt;b6db6dc599b14f629b49343600de69dc -->
<g id="edge1" class="edge">
<title>c01f38a1690d497f9249dfc09261463d&#45;&gt;b6db6dc599b14f629b49343600de69dc</title>
<path fill="none" stroke="#0078d4" stroke-width="2" d="M100.55,-1527C158.9,-1527 256.21,-1527 319.15,-1527"/>
<polygon fill="#0078d4" stroke="#0078d4" stroke-width="2" points="317.46,-1530.5 327.46,-1527 317.46,-1523.5 317.46,-1530.5"/>
<text xml:space="preserve" text-anchor="middle" x="215.55" y="-1531.15" font-family="Sans-Serif" font-size="13.00" fill="#2d3436">HTTPS · Entra ID JWT</text>
</g>
<!-- 84639c85a4024426a94efc5b6249e82d -->
<g id="node3" class="node">
<title>84639c85a4024426a94efc5b6249e82d</title>
<image xlink:href="C:\Users\GuilhermePruxCampos\AppData\Roaming\Python\Python314\site-packages\resources/azure/compute\container-apps.png" width="100.8px" height="100.8px" preserveAspectRatio="xMinYMin meet" x="697.95" y="-1464.4"/>
<text xml:space="preserve" text-anchor="middle" x="748.35" y="-1362.05" font-family="Segoe UI" font-size="13.00" fill="#2d3436">Backend Python</text>
<text xml:space="preserve" text-anchor="middle" x="748.35" y="-1344.05" font-family="Segoe UI" font-size="13.00" fill="#2d3436">Quart + gunicorn</text>
<text xml:space="preserve" text-anchor="middle" x="748.35" y="-1326.05" font-family="Segoe UI" font-size="13.00" fill="#2d3436">/chat /ask /upload</text>
<text xml:space="preserve" text-anchor="middle" x="748.35" y="-1308.05" font-family="Segoe UI" font-size="13.00" fill="#2d3436">/api/tickets/* → 410 Gone</text>
</g>
<!-- b6db6dc599b14f629b49343600de69dc&#45;&gt;84639c85a4024426a94efc5b6249e82d -->
<g id="edge2" class="edge">
<title>b6db6dc599b14f629b49343600de69dc&#45;&gt;84639c85a4024426a94efc5b6249e82d</title>
<path fill="none" stroke="#0078d4" d="M431.01,-1511.76C497.58,-1491.19 616.06,-1454.57 687.6,-1432.46"/>
<polygon fill="#0078d4" stroke="#0078d4" points="688.27,-1435.92 696.79,-1429.63 686.2,-1429.23 688.27,-1435.92"/>
<text xml:space="preserve" text-anchor="middle" x="554.85" y="-1514.26" font-family="Sans-Serif" font-size="13.00" fill="#2d3436">/chat /ask /upload</text>
<text xml:space="preserve" text-anchor="middle" x="554.85" y="-1497.76" font-family="Sans-Serif" font-size="13.00" fill="#2d3436">VITE_API_BACKEND_URL</text>
</g>
<!-- a59f3133529f48ea89d1a513a89aaf78 -->
<g id="node4" class="node">
<title>a59f3133529f48ea89d1a513a89aaf78</title>
<image xlink:href="C:\Users\GuilhermePruxCampos\AppData\Roaming\Python\Python314\site-packages\resources/azure/compute\container-apps.png" width="100.8px" height="100.8px" preserveAspectRatio="xMinYMin meet" x="1112.1" y="-1479.4"/>
<text xml:space="preserve" text-anchor="middle" x="1162.5" y="-1373.45" font-family="Segoe UI" font-size="13.00" fill="#2d3436">Tickets&#45;service .NET 10</text>
<text xml:space="preserve" text-anchor="middle" x="1162.5" y="-1355.45" font-family="Segoe UI" font-size="13.00" fill="#2d3436">Minimal API + Dapper</text>
<text xml:space="preserve" text-anchor="middle" x="1162.5" y="-1337.45" font-family="Segoe UI" font-size="13.00" fill="#2d3436">5 endpoints REST + JWT auth</text>
</g>
<!-- b6db6dc599b14f629b49343600de69dc&#45;&gt;a59f3133529f48ea89d1a513a89aaf78 -->
<g id="edge3" class="edge">
<title>b6db6dc599b14f629b49343600de69dc&#45;&gt;a59f3133529f48ea89d1a513a89aaf78</title>
<path fill="none" stroke="#0078d4" d="M430.82,-1535.67C511.98,-1548.57 678.96,-1569.05 818.1,-1547 921.23,-1530.66 1034.67,-1486.06 1101.9,-1456.62"/>
<polygon fill="#0078d4" stroke="#0078d4" points="1103.17,-1459.88 1110.9,-1452.64 1100.34,-1453.48 1103.17,-1459.88"/>
<text xml:space="preserve" text-anchor="middle" x="748.35" y="-1577.39" font-family="Sans-Serif" font-size="13.00" fill="#2d3436">/api/tickets/*</text>
<text xml:space="preserve" text-anchor="middle" x="748.35" y="-1560.89" font-family="Sans-Serif" font-size="13.00" fill="#2d3436">VITE_API_TICKETS_URL</text>
</g>
<!-- 84639c85a4024426a94efc5b6249e82d&#45;&gt;a59f3133529f48ea89d1a513a89aaf78 -->
<g id="edge4" class="edge">
<title>84639c85a4024426a94efc5b6249e82d&#45;&gt;a59f3133529f48ea89d1a513a89aaf78</title>
<path fill="none" stroke="#d83b01" stroke-dasharray="5,2" d="M798.66,-1415.79C874.29,-1418.55 1018.77,-1423.81 1100.75,-1426.79"/>
<polygon fill="#d83b01" stroke="#d83b01" points="1100.5,-1430.28 1110.63,-1427.15 1100.76,-1423.29 1100.5,-1430.28"/>
<text xml:space="preserve" text-anchor="middle" x="965.1" y="-1445.63" font-family="Sans-Serif" font-size="13.00" fill="#2d3436">410 Gone + Link</text>
<text xml:space="preserve" text-anchor="middle" x="965.1" y="-1429.13" font-family="Sans-Serif" font-size="13.00" fill="#2d3436">rel=successor&#45;version (RFC 8288)</text>
</g>
<!-- d22ae7aa65714b4bbd9e97a74c3d8d65 -->
<g id="node5" class="node">
<title>d22ae7aa65714b4bbd9e97a74c3d8d65</title>
<image xlink:href="C:\Users\GuilhermePruxCampos\AppData\Roaming\Python\Python314\site-packages\resources/azure/identity\managed-identities.png" width="100.8px" height="100.8px" preserveAspectRatio="xMinYMin meet" x="1446.88" y="-1277.4"/>
<text xml:space="preserve" text-anchor="middle" x="1497.28" y="-1167.85" font-family="Segoe UI" font-size="13.00" fill="#2d3436">User&#45;Assigned MI</text>
<text xml:space="preserve" text-anchor="middle" x="1497.28" y="-1149.85" font-family="Segoe UI" font-size="13.00" fill="#2d3436">backend (Python)</text>
</g>
<!-- 84639c85a4024426a94efc5b6249e82d&#45;&gt;d22ae7aa65714b4bbd9e97a74c3d8d65 -->
<g id="edge5" class="edge">
<title>84639c85a4024426a94efc5b6249e82d&#45;&gt;d22ae7aa65714b4bbd9e97a74c3d8d65</title>
<path fill="none" stroke="#605e5c" stroke-dasharray="1,5" d="M798.54,-1394.5C866.34,-1368.26 992.8,-1321.65 1104.1,-1293.5 1220.08,-1264.17 1358.67,-1244.08 1436.17,-1234.16"/>
<polygon fill="#605e5c" stroke="#605e5c" points="1436.17,-1237.69 1445.65,-1232.96 1435.29,-1230.74 1436.17,-1237.69"/>
<text xml:space="preserve" text-anchor="middle" x="1162.5" y="-1297.65" font-family="Sans-Serif" font-size="13.00" fill="#2d3436">MI</text>
</g>
<!-- 375d68ce331f4b949209c0694f3da77c -->
<g id="node8" class="node">
<title>375d68ce331f4b949209c0694f3da77c</title>
<image xlink:href="C:\Users\GuilhermePruxCampos\AppData\Roaming\Python\Python314\site-packages\resources/azure/storage\blob-storage.png" width="100.8px" height="100.8px" preserveAspectRatio="xMinYMin meet" x="1883.15" y="-1641.4"/>
<text xml:space="preserve" text-anchor="middle" x="1933.55" y="-1535.45" font-family="Segoe UI" font-size="13.00" fill="#2d3436">Blob Storage</text>
<text xml:space="preserve" text-anchor="middle" x="1933.55" y="-1517.45" font-family="Segoe UI" font-size="13.00" fill="#2d3436">62 PDFs Apex KB</text>
<text xml:space="preserve" text-anchor="middle" x="1933.55" y="-1499.45" font-family="Segoe UI" font-size="13.00" fill="#2d3436">+ mocks Vision OCR</text>
</g>
<!-- 84639c85a4024426a94efc5b6249e82d&#45;&gt;375d68ce331f4b949209c0694f3da77c -->
<g id="edge12" class="edge">
<title>84639c85a4024426a94efc5b6249e82d&#45;&gt;375d68ce331f4b949209c0694f3da77c</title>
<path fill="none" stroke="#5c2d91" stroke-dasharray="5,2" d="M798.65,-1438.43C865.82,-1470.34 990.73,-1524.86 1104.1,-1548 1386.85,-1605.7 1734.49,-1599.42 1872.24,-1593.97"/>
<polygon fill="#5c2d91" stroke="#5c2d91" points="1871.99,-1597.48 1881.84,-1593.57 1871.71,-1590.48 1871.99,-1597.48"/>
<text xml:space="preserve" text-anchor="middle" x="1293.9" y="-1584.05" font-family="Sans-Serif" font-size="13.00" fill="#2d3436">docs</text>
</g>
<!-- d97cdb8f280641b7aff573b323be07ff -->
<g id="node9" class="node">
<title>d97cdb8f280641b7aff573b323be07ff</title>
<image xlink:href="C:\Users\GuilhermePruxCampos\AppData\Roaming\Python\Python314\site-packages\resources/azure/ml\cognitive-services.png" width="100.8px" height="100.8px" preserveAspectRatio="xMinYMin meet" x="1112.1" y="-609.4"/>
<text xml:space="preserve" text-anchor="middle" x="1162.5" y="-503.45" font-family="Segoe UI" font-size="13.00" fill="#2d3436">Azure OpenAI</text>
<text xml:space="preserve" text-anchor="middle" x="1162.5" y="-485.45" font-family="Segoe UI" font-size="13.00" fill="#2d3436">gpt&#45;4.1&#45;mini</text>
<text xml:space="preserve" text-anchor="middle" x="1162.5" y="-467.45" font-family="Segoe UI" font-size="13.00" fill="#2d3436">+ emb&#45;3&#45;large</text>
</g>
<!-- 84639c85a4024426a94efc5b6249e82d&#45;&gt;d97cdb8f280641b7aff573b323be07ff -->
<g id="edge9" class="edge">
<title>84639c85a4024426a94efc5b6249e82d&#45;&gt;d97cdb8f280641b7aff573b323be07ff</title>
<path fill="none" stroke="#5c2d91" stroke-dasharray="5,2" d="M756.1,-1302.54C766.98,-1187.44 795.34,-1005.53 869.1,-866.5 927.5,-756.42 1036.39,-657.56 1103.54,-603.15"/>
<polygon fill="#5c2d91" stroke="#5c2d91" points="1105.54,-606.03 1111.15,-597.04 1101.16,-600.57 1105.54,-606.03"/>
<text xml:space="preserve" text-anchor="middle" x="965.1" y="-870.65" font-family="Sans-Serif" font-size="13.00" fill="#2d3436">RAG</text>
</g>
<!-- 959c02aeebaa4ce8ae9e28ab637dd9c1 -->
<g id="node10" class="node">
<title>959c02aeebaa4ce8ae9e28ab637dd9c1</title>
<image xlink:href="C:\Users\GuilhermePruxCampos\AppData\Roaming\Python\Python314\site-packages\resources/azure/web\search.png" width="100.8px" height="100.8px" preserveAspectRatio="xMinYMin meet" x="1112.1" y="-386.4"/>
<text xml:space="preserve" text-anchor="middle" x="1162.5" y="-276.85" font-family="Segoe UI" font-size="13.00" fill="#2d3436">AI Search</text>
<text xml:space="preserve" text-anchor="middle" x="1162.5" y="-258.85" font-family="Segoe UI" font-size="13.00" fill="#2d3436">semantic ranker</text>
</g>
<!-- 84639c85a4024426a94efc5b6249e82d&#45;&gt;959c02aeebaa4ce8ae9e28ab637dd9c1 -->
<g id="edge10" class="edge">
<title>84639c85a4024426a94efc5b6249e82d&#45;&gt;959c02aeebaa4ce8ae9e28ab637dd9c1</title>
<path fill="none" stroke="#5c2d91" stroke-dasharray="5,2" d="M757.23,-1302.63C772.13,-1112.59 808.49,-734.83 869.1,-617.5 924,-511.22 1034.67,-422.1 1103.01,-374.13"/>
<polygon fill="#5c2d91" stroke="#5c2d91" points="1104.9,-377.07 1111.11,-368.5 1100.9,-371.33 1104.9,-377.07"/>
<text xml:space="preserve" text-anchor="middle" x="965.1" y="-621.65" font-family="Sans-Serif" font-size="13.00" fill="#2d3436">index</text>
</g>
<!-- ca8f8c19f86a499fbbab38844d11c915 -->
<g id="node11" class="node">
<title>ca8f8c19f86a499fbbab38844d11c915</title>
<image xlink:href="C:\Users\GuilhermePruxCampos\AppData\Roaming\Python\Python314\site-packages\resources/azure/ml\cognitive-services.png" width="100.8px" height="100.8px" preserveAspectRatio="xMinYMin meet" x="1112.1" y="-163.4"/>
<text xml:space="preserve" text-anchor="middle" x="1162.5" y="-57.45" font-family="Segoe UI" font-size="13.00" fill="#2d3436">Doc Intelligence</text>
<text xml:space="preserve" text-anchor="middle" x="1162.5" y="-39.45" font-family="Segoe UI" font-size="13.00" fill="#2d3436">+ AI Vision</text>
<text xml:space="preserve" text-anchor="middle" x="1162.5" y="-21.45" font-family="Segoe UI" font-size="13.00" fill="#2d3436">(OCR · layout)</text>
</g>
<!-- 84639c85a4024426a94efc5b6249e82d&#45;&gt;ca8f8c19f86a499fbbab38844d11c915 -->
<g id="edge11" class="edge">
<title>84639c85a4024426a94efc5b6249e82d&#45;&gt;ca8f8c19f86a499fbbab38844d11c915</title>
<path fill="none" stroke="#5c2d91" stroke-dasharray="5,2" d="M752.65,-1302.56C761.08,-1070.35 788.72,-543.09 869.1,-384.5 922.34,-279.46 1033.82,-194.2 1102.71,-148.77"/>
<polygon fill="#5c2d91" stroke="#5c2d91" points="1104.4,-151.84 1110.86,-143.45 1100.58,-145.98 1104.4,-151.84"/>
<text xml:space="preserve" text-anchor="middle" x="965.1" y="-388.65" font-family="Sans-Serif" font-size="13.00" fill="#2d3436">OCR</text>
</g>
<!-- b8180e4b4d2f4dd6b46bfced127b77ce -->
<g id="node12" class="node">
<title>b8180e4b4d2f4dd6b46bfced127b77ce</title>
<image xlink:href="C:\Users\GuilhermePruxCampos\AppData\Roaming\Python\Python314\site-packages\resources/azure/ml\cognitive-services.png" width="100.8px" height="100.8px" preserveAspectRatio="xMinYMin meet" x="1112.1" y="-841.4"/>
<text xml:space="preserve" text-anchor="middle" x="1162.5" y="-731.85" font-family="Segoe UI" font-size="13.00" fill="#2d3436">Application Insights</text>
<text xml:space="preserve" text-anchor="middle" x="1162.5" y="-713.85" font-family="Segoe UI" font-size="13.00" fill="#2d3436">workspace&#45;based</text>
</g>
<!-- 84639c85a4024426a94efc5b6249e82d&#45;&gt;b8180e4b4d2f4dd6b46bfced127b77ce -->
<g id="edge13" class="edge">
<title>84639c85a4024426a94efc5b6249e82d&#45;&gt;b8180e4b4d2f4dd6b46bfced127b77ce</title>
<path fill="none" stroke="#605e5c" stroke-dasharray="1,5" d="M784.66,-1302.74C805.13,-1245.98 833.85,-1177.16 869.1,-1120.5 936.52,-1012.14 1040.28,-905.05 1104.36,-843.61"/>
<polygon fill="#605e5c" stroke="#605e5c" points="1106.44,-846.46 1111.26,-837.03 1101.61,-841.4 1106.44,-846.46"/>
<text xml:space="preserve" text-anchor="middle" x="965.1" y="-1124.65" font-family="Sans-Serif" font-size="13.00" fill="#2d3436">OpenTelemetry</text>
</g>
<!-- bdd97456c1c048d1b55c87e11d794f89 -->
<g id="node6" class="node">
<title>bdd97456c1c048d1b55c87e11d794f89</title>
<image xlink:href="C:\Users\GuilhermePruxCampos\AppData\Roaming\Python\Python314\site-packages\resources/azure/identity\managed-identities.png" width="100.8px" height="100.8px" preserveAspectRatio="xMinYMin meet" x="1446.88" y="-1486.4"/>
<text xml:space="preserve" text-anchor="middle" x="1497.28" y="-1376.85" font-family="Segoe UI" font-size="13.00" fill="#2d3436">User&#45;Assigned MI</text>
<text xml:space="preserve" text-anchor="middle" x="1497.28" y="-1358.85" font-family="Segoe UI" font-size="13.00" fill="#2d3436">tickets&#45;service (.NET)</text>
</g>
<!-- a59f3133529f48ea89d1a513a89aaf78&#45;&gt;bdd97456c1c048d1b55c87e11d794f89 -->
<g id="edge6" class="edge">
<title>a59f3133529f48ea89d1a513a89aaf78&#45;&gt;bdd97456c1c048d1b55c87e11d794f89</title>
<path fill="none" stroke="#605e5c" stroke-dasharray="1,5" d="M1212.6,-1430.03C1271.96,-1431.28 1371.82,-1433.38 1435.84,-1434.73"/>
<polygon fill="#605e5c" stroke="#605e5c" points="1435.39,-1438.22 1445.46,-1434.93 1435.53,-1431.22 1435.39,-1438.22"/>
<text xml:space="preserve" text-anchor="middle" x="1293.9" y="-1436.44" font-family="Sans-Serif" font-size="13.00" fill="#2d3436">MI</text>
</g>
<!-- a59f3133529f48ea89d1a513a89aaf78&#45;&gt;b8180e4b4d2f4dd6b46bfced127b77ce -->
<g id="edge14" class="edge">
<title>a59f3133529f48ea89d1a513a89aaf78&#45;&gt;b8180e4b4d2f4dd6b46bfced127b77ce</title>
<path fill="none" stroke="#605e5c" stroke-dasharray="1,5" d="M1112.11,-1406.91C1044.22,-1373.4 934.07,-1303.86 954.5,-1212.75 982.67,-1087.14 1055.04,-956.27 1106.48,-874.27"/>
<polygon fill="#605e5c" stroke="#605e5c" points="1109.14,-876.61 1111.53,-866.29 1103.23,-872.87 1109.14,-876.61"/>
<text xml:space="preserve" text-anchor="middle" x="965.1" y="-1216.9" font-family="Sans-Serif" font-size="13.00" fill="#2d3436">OpenTelemetry</text>
</g>
<!-- 0a3ecd82f29d466d84436b49b6d7f1ff -->
<g id="node7" class="node">
<title>0a3ecd82f29d466d84436b49b6d7f1ff</title>
<image xlink:href="C:\Users\GuilhermePruxCampos\AppData\Roaming\Python\Python314\site-packages\resources/azure/database\sql-databases.png" width="100.8px" height="100.8px" preserveAspectRatio="xMinYMin meet" x="1883.15" y="-1389.4"/>
<text xml:space="preserve" text-anchor="middle" x="1933.55" y="-1287.05" font-family="Segoe UI" font-size="13.00" fill="#2d3436">Azure SQL DB Serverless</text>
<text xml:space="preserve" text-anchor="middle" x="1933.55" y="-1269.05" font-family="Segoe UI" font-size="13.00" fill="#2d3436">GP_S_Gen5_2</text>
<text xml:space="preserve" text-anchor="middle" x="1933.55" y="-1251.05" font-family="Segoe UI" font-size="13.00" fill="#2d3436">autoPauseDelay = &#45;1</text>
<text xml:space="preserve" text-anchor="middle" x="1933.55" y="-1233.05" font-family="Segoe UI" font-size="13.00" fill="#2d3436">5 tenants · 50 tickets · 70 comments</text>
</g>
<!-- d22ae7aa65714b4bbd9e97a74c3d8d65&#45;&gt;0a3ecd82f29d466d84436b49b6d7f1ff -->
<g id="edge7" class="edge">
<title>d22ae7aa65714b4bbd9e97a74c3d8d65&#45;&gt;0a3ecd82f29d466d84436b49b6d7f1ff</title>
<path fill="none" stroke="#107c10" d="M1547.67,-1239.74C1627.75,-1260.39 1785.65,-1301.11 1872.24,-1323.45"/>
<polygon fill="#107c10" stroke="#107c10" points="1871.18,-1326.79 1881.74,-1325.9 1872.93,-1320.01 1871.18,-1326.79"/>
<text xml:space="preserve" text-anchor="middle" x="1751.9" y="-1332.58" font-family="Sans-Serif" font-size="13.00" fill="#107c10">SELECT em tbl_tenants</text>
<text xml:space="preserve" text-anchor="middle" x="1751.9" y="-1316.08" font-family="Sans-Serif" font-size="13.00" fill="#107c10">APENAS (Decisão #17)</text>
</g>
<!-- bdd97456c1c048d1b55c87e11d794f89&#45;&gt;0a3ecd82f29d466d84436b49b6d7f1ff -->
<g id="edge8" class="edge">
<title>bdd97456c1c048d1b55c87e11d794f89&#45;&gt;0a3ecd82f29d466d84436b49b6d7f1ff</title>
<path fill="none" stroke="#107c10" d="M1547.67,-1424.97C1627.67,-1407.1 1785.33,-1371.88 1871.97,-1352.53"/>
<polygon fill="#107c10" stroke="#107c10" points="1872.73,-1355.95 1881.72,-1350.35 1871.2,-1349.12 1872.73,-1355.95"/>
<text xml:space="preserve" text-anchor="middle" x="1751.9" y="-1433.34" font-family="Sans-Serif" font-size="13.00" fill="#107c10">9 grants scoped</text>
<text xml:space="preserve" text-anchor="middle" x="1751.9" y="-1416.84" font-family="Sans-Serif" font-size="13.00" fill="#107c10">object&#45;level</text>
<text xml:space="preserve" text-anchor="middle" x="1751.9" y="-1400.34" font-family="Sans-Serif" font-size="13.00" fill="#107c10">(sys.database_permissions)</text>
</g>
<!-- 8c7728883180472a8d5f9d94d46a002d -->
<g id="node13" class="node">
<title>8c7728883180472a8d5f9d94d46a002d</title>
<image xlink:href="C:\Users\GuilhermePruxCampos\AppData\Roaming\Python\Python314\site-packages\resources/azure/compute\container-registries.png" width="100.8px" height="100.8px" preserveAspectRatio="xMinYMin meet" x="1446.88" y="-1050.4"/>
<text xml:space="preserve" text-anchor="middle" x="1497.28" y="-940.85" font-family="Segoe UI" font-size="13.00" fill="#2d3436">ACR</text>
<text xml:space="preserve" text-anchor="middle" x="1497.28" y="-922.85" font-family="Segoe UI" font-size="13.00" fill="#2d3436">2 imagens Docker</text>
</g>
<!-- 8c7728883180472a8d5f9d94d46a002d&#45;&gt;84639c85a4024426a94efc5b6249e82d -->
<g id="edge16" class="edge">
<title>8c7728883180472a8d5f9d94d46a002d&#45;&gt;84639c85a4024426a94efc5b6249e82d</title>
<path fill="none" stroke="#605e5c" stroke-dasharray="1,5" d="M1446.99,-1020.1C1392.24,-1042.07 1301,-1077.66 1220.9,-1104 1182.33,-1116.69 901.07,-1177.96 869.1,-1203 839.15,-1226.46 815.42,-1259.64 797.26,-1292.75"/>
<polygon fill="#605e5c" stroke="#605e5c" points="794.37,-1290.74 792.75,-1301.21 800.54,-1294.03 794.37,-1290.74"/>
<text xml:space="preserve" text-anchor="middle" x="1162.5" y="-1137.52" font-family="Sans-Serif" font-size="13.00" fill="#2d3436">image pull</text>
</g>
<!-- 8c7728883180472a8d5f9d94d46a002d&#45;&gt;a59f3133529f48ea89d1a513a89aaf78 -->
<g id="edge17" class="edge">
<title>8c7728883180472a8d5f9d94d46a002d&#45;&gt;a59f3133529f48ea89d1a513a89aaf78</title>
<path fill="none" stroke="#605e5c" stroke-dasharray="1,5" d="M1447.1,-1023.58C1408.82,-1044.73 1357.95,-1079.6 1331.9,-1126 1315.49,-1155.23 1335.7,-1169.62 1323.9,-1201 1300.55,-1263.09 1256.23,-1324.05 1220.08,-1367.29"/>
<polygon fill="#605e5c" stroke="#605e5c" points="1217.5,-1364.92 1213.71,-1374.81 1222.85,-1369.44 1217.5,-1364.92"/>
<text xml:space="preserve" text-anchor="middle" x="1293.9" y="-1311.73" font-family="Sans-Serif" font-size="13.00" fill="#2d3436">image pull</text>
</g>
<!-- 79b2dec2351442f7999bea5147f079ad -->
<g id="node14" class="node">
<title>79b2dec2351442f7999bea5147f079ad</title>
<image xlink:href="C:\Users\GuilhermePruxCampos\AppData\Roaming\Python\Python314\site-packages\resources/azure/devops\devops.png" width="100.8px" height="100.8px" preserveAspectRatio="xMinYMin meet" x="1112.1" y="-1050.4"/>
<text xml:space="preserve" text-anchor="middle" x="1162.5" y="-940.85" font-family="Segoe UI" font-size="13.00" fill="#2d3436">GitHub Actions</text>
<text xml:space="preserve" text-anchor="middle" x="1162.5" y="-922.85" font-family="Segoe UI" font-size="13.00" fill="#2d3436">azd CI/CD · OIDC</text>
</g>
<!-- 79b2dec2351442f7999bea5147f079ad&#45;&gt;8c7728883180472a8d5f9d94d46a002d -->
<g id="edge15" class="edge">
<title>79b2dec2351442f7999bea5147f079ad&#45;&gt;8c7728883180472a8d5f9d94d46a002d</title>
<path fill="none" stroke="#605e5c" stroke-dasharray="1,5" d="M1212.6,-1000C1271.96,-1000 1371.82,-1000 1435.84,-1000"/>
<polygon fill="#605e5c" stroke="#605e5c" points="1435.46,-1003.5 1445.46,-1000 1435.46,-996.5 1435.46,-1003.5"/>
<text xml:space="preserve" text-anchor="middle" x="1293.9" y="-1004.15" font-family="Sans-Serif" font-size="13.00" fill="#2d3436">azd up</text>
</g>
</g>
</svg>
